<svg id="eyCxfdmpEuM1" xmlns="http://www.w3.org/2000/svg" xmlns:xlink="http://www.w3.org/1999/xlink" viewBox="112 82 380 380" shape-rendering="geometricPrecision" text-rendering="geometricPrecision"><ellipse id="eyCxfdmpEuM2" rx="184.83548" ry="187.124464" transform="matrix(1 0 0 1 302.216545 272.274678)" fill="rgb(10,209,87)" stroke="none" stroke-width="0"/><path id="eyCxfdmpEuM3" d="M214.134478,407.439199Q257.625179,370.815451,314.27754,371.959943" transform="matrix(0.577424 0.673226 -0.792708 0.679904 487.474437 -114.569999)" fill="none" stroke="rgb(0,0,0)" stroke-width="20" stroke-linecap="round"/><path id="eyCxfdmpEuM4" d="M214.134478,407.439199Q257.563049,370.815451,314.134478,371.959943" transform="matrix(0.986104 0.166128 -0.169451 1.005826 51.965784 -118.222223)" fill="none" stroke="rgb(0,0,0)" stroke-width="20" stroke-linecap="round"/><path id="eyCxfdmpEuM5" d="M214.134478,222.031474Q248.434414,259.799714,291.959943,230.042918" transform="matrix(0.993584 -0.113098 0.113098 0.993584 -24.681705 30.111507)" fill="none" stroke="rgb(0,0,0)" stroke-width="20" stroke-linecap="round"/><path id="eyCxfdmpEuM6" d="M214.134478,222.031474Q248.434414,259.799714,291.959943,230.042918" transform="matrix(0.977422 0.211295 -0.211295 0.977422 168.743354 -30.247767)" fill="none" stroke="rgb(0,0,0)" stroke-width="20" stroke-linecap="round"/><path id="eyCxfdmpEuM7" d="M185.522175,183.118741Q297.781448,170.529328,415.565093,211.731044" transform="matrix(0.998246 0.059209 -0.059209 0.998246 24.769179 -15.16219)" fill="none" stroke="rgb(0,0,0)" stroke-width="20" stroke-linecap="round"/></svg>