<svg id="ecKpamiwDLH1" xmlns="http://www.w3.org/2000/svg" xmlns:xlink="http://www.w3.org/1999/xlink" viewBox="0 0 533 400" shape-rendering="geometricPrecision" text-rendering="geometricPrecision"><ellipse id="ecKpamiwDLH2" rx="132.085" ry="137.979" transform="matrix(1 0 0 1 270.104303 200)" fill="rgb(0,213,90)" stroke="none" stroke-width="0"/><g id="ecKpamiwDLH3" transform="matrix(1 0 0 1 0.000001 0)"><path id="ecKpamiwDLH4" d="M193.350407,169.180101Q283.487346,142.139019,350.050009,173.340267" transform="matrix(0.281902 -0.018472 0.048168 0.735095 218.835268 60.611998)" fill="none" stroke="rgb(0,0,0)" stroke-width="5" stroke-linecap="round" stroke-miterlimit="10"/><path id="ecKpamiwDLH5" d="M193.350407,169.180101Q283.487346,142.139019,350.050009,173.340267" transform="matrix(0.281902 -0.018472 0.048168 0.735095 145.088923 57.164485)" fill="none" stroke="rgb(0,0,0)" stroke-width="5" stroke-linecap="round" stroke-linejoin="round"/><path id="ecKpamiwDLH6" d="M193.350407,169.180101Q283.487346,142.139019,350.050009,173.340267" transform="matrix(-0.963908 0.017276 -0.030824 -1.71984 536.828262 540.07951)" fill="none" stroke="rgb(0,0,0)" stroke-width="5" stroke-linecap="round"/><path id="ecKpamiwDLH7" d="M194.069152,111.734223L331.51113,107.584302" transform="matrix(1.214867 -0.065946 -0.078351 -1.443395 -44.163284 320.960155)" fill="none" stroke="rgb(0,0,0)" stroke-width="10" stroke-linecap="round" stroke-linejoin="round"/></g><path id="ecKpamiwDLH8" d="M34.570723,91.523661Q49.824666,174.895337,164.229243,60.322413Q19.31678,8.151985,34.570723,91.523661Z" transform="matrix(0.046498 -0.168044 0.176101 0.048728 206.69 248.794)" opacity="0" fill="rgb(67,103,184)" stroke="rgb(78,123,213)" stroke-width="1.066"/><path id="ecKpamiwDLH9" d="M34.570723,91.523661Q49.824666,174.895337,164.229243,60.322413Q19.31678,8.151985,34.570723,91.523661Z" transform="matrix(0.046498 -0.168044 0.176101 0.048728 208.786 209.983)" opacity="0" fill="rgb(67,103,184)" stroke="rgb(78,123,213)" stroke-width="1.066"/><path id="ecKpamiwDLH10" d="M231.04949,273.62646C210.4139,314.89763,247.37245,329.24746,267.8372,278.08558" fill="rgb(213,124,124)" stroke="none" stroke-width="3"/></svg>