<svg id="e0I24lSb9jF1" xmlns="http://www.w3.org/2000/svg" xmlns:xlink="http://www.w3.org/1999/xlink" viewBox="0 0 533 400" shape-rendering="geometricPrecision" text-rendering="geometricPrecision"><ellipse id="e0I24lSb9jF2" rx="132.085284" ry="137.978853" transform="matrix(1 0 0 1 271.956777 200)" fill="rgb(0,213,90)" stroke="none" stroke-width="0"/><g id="e0I24lSb9jF3" transform="matrix(1 0 0 1 0.000001 0)"><path id="e0I24lSb9jF4" d="M193.350407,169.180101Q283.487346,142.139019,350.050009,173.340267" transform="matrix(-0.281902 0.018472 -0.048168 -0.735095 388.981534 292.62661)" fill="none" stroke="rgb(0,0,0)" stroke-width="5" stroke-linecap="round" stroke-miterlimit="10"/><path id="e0I24lSb9jF5" d="M193.350407,169.180101Q283.487346,142.139019,350.050009,173.340267" transform="matrix(-0.281902 0.018472 -0.048168 -0.735095 322.764511 294.626606)" fill="none" stroke="rgb(0,0,0)" stroke-width="5" stroke-linecap="round" stroke-linejoin="round"/><path id="e0I24lSb9jF6" d="M193.350407,169.180101Q283.487346,142.139019,350.050009,173.340267" transform="matrix(1.023314 -0.018341 0.030824 1.719835 -8.618094 -136.498137)" fill="none" stroke="rgb(0,0,0)" stroke-width="10" stroke-linecap="round" stroke-linejoin="round"/><path id="e0I24lSb9jF7" d="M193.350407,169.180101Q283.487346,142.139019,350.050009,173.340267" transform="matrix(0.963908 -0.017276 0.030824 1.719835 7.265812 -7.156944)" fill="none" stroke="rgb(0,0,0)" stroke-width="5" stroke-linecap="round"/></g><path id="e0I24lSb9jF8" d="M34.570723,91.523661Q49.824666,174.895337,164.229243,60.322413Q19.31678,8.151985,34.570723,91.523661Z" transform="matrix(0.046498 -0.168044 0.176101 0.048728 192.794704 224.842068)" fill="rgb(67,103,184)" stroke="rgb(78,123,213)" stroke-width="1.066"/><path id="e0I24lSb9jF9" d="M34.570723,91.523661Q49.824666,174.895337,164.229243,60.322413Q19.31678,8.151985,34.570723,91.523661Z" transform="matrix(0.046498 -0.168044 0.176101 0.048728 206.689666 248.794007)" opacity="0" fill="rgb(67,103,184)" stroke="rgb(78,123,213)" stroke-width="1.066"/><path id="e0I24lSb9jF10" d="M34.570723,91.523661Q49.824666,174.895337,164.229243,60.322413Q19.31678,8.151985,34.570723,91.523661Z" transform="matrix(0.046498 -0.168044 0.176101 0.048728 208.786056 209.982508)" opacity="0" fill="rgb(67,103,184)" stroke="rgb(78,123,213)" stroke-width="1.066"/></svg>